<svg width="31" height="31" viewBox="0 0 31 31" fill="none" xmlns="http://www.w3.org/2000/svg">
<path d="M12.1667 18.8333H22.1667M23.8333 8.83333H20.5C19.6159 8.83333 18.7681 9.18452 18.143 9.80964C17.5179 10.4348 17.1667 11.2826 17.1667 12.1667V30.5M30.5 28.8333V2.16667C30.5 1.72464 30.3244 1.30072 30.0118 0.988155C29.6993 0.675595 29.2754 0.5 28.8333 0.5H2.16667C1.72464 0.5 1.30072 0.675595 0.988155 0.988155C0.675595 1.30072 0.5 1.72464 0.5 2.16667V28.8333C0.5 29.2754 0.675595 29.6993 0.988155 30.0118C1.30072 30.3244 1.72464 30.5 2.16667 30.5H28.8333C29.2754 30.5 29.6993 30.3244 30.0118 30.0118C30.3244 29.6993 30.5 29.2754 30.5 28.8333Z" stroke="white" stroke-linecap="round" stroke-linejoin="round"/>
</svg>
