<svg width="31" height="31" viewBox="0 0 31 31" fill="none" xmlns="http://www.w3.org/2000/svg">
<path d="M28.8333 30.5H2.16667C1.72464 30.5 1.30072 30.3244 0.988155 30.0118C0.675595 29.6993 0.5 29.2754 0.5 28.8333V2.16667C0.5 1.72464 0.675595 1.30072 0.988155 0.988155C1.30072 0.675595 1.72464 0.5 2.16667 0.5H28.8333C29.2754 0.5 29.6993 0.675595 30.0118 0.988155C30.3244 1.30072 30.5 1.72464 30.5 2.16667V28.8333C30.5 29.2754 30.3244 29.6993 30.0118 30.0118C29.6993 30.3244 29.2754 30.5 28.8333 30.5ZM10.5 15.5C10.5 16.4889 10.7932 17.4556 11.3427 18.2779C11.8921 19.1001 12.673 19.741 13.5866 20.1194C14.5002 20.4978 15.5055 20.5969 16.4755 20.4039C17.4454 20.211 18.3363 19.7348 19.0355 19.0355C19.7348 18.3363 20.211 17.4454 20.4039 16.4755C20.5969 15.5055 20.4978 14.5002 20.1194 13.5866C19.741 12.673 19.1001 11.8921 18.2779 11.3427C17.4556 10.7932 16.4889 10.5 15.5 10.5C14.1739 10.5 12.9021 11.0268 11.9645 11.9645C11.0268 12.9021 10.5 14.1739 10.5 15.5Z" stroke="white" stroke-linecap="round" stroke-linejoin="round"/>
</svg>
