<svg width="25" height="24" viewBox="0 0 25 24" fill="none" xmlns="http://www.w3.org/2000/svg">
<path d="M0.75 23.25H23.25M17 23.25V8.24998M3.25 15.75C2.58696 15.75 1.95107 15.4866 1.48223 15.0177C1.01339 14.5489 0.75 13.913 0.75 13.25V9.49998C0.75 8.83694 1.01339 8.20105 1.48223 7.73221C1.95107 7.26337 2.58696 6.99998 3.25 6.99998C3.91304 6.99998 4.54893 7.26337 5.01777 7.73221C5.48661 8.20105 5.75 8.83694 5.75 9.49998V13.25C5.75 13.913 5.48661 14.5489 5.01777 15.0177C4.54893 15.4866 3.91304 15.75 3.25 15.75ZM3.25 15.75V23.25M13.3625 11.625C13.5657 12.4358 14.034 13.1555 14.6931 13.6698C15.3521 14.184 16.1641 14.4633 17 14.4633C17.8359 14.4633 18.6479 14.184 19.3069 13.6698C19.966 13.1555 20.4343 12.4358 20.6375 11.625C21.4165 11.2859 22.0795 10.7268 22.5452 10.0162C23.0108 9.30563 23.2589 8.47455 23.2589 7.62498C23.2589 6.77541 23.0108 5.94433 22.5452 5.23376C22.0795 4.52318 21.4165 3.96404 20.6375 3.62498C20.4343 2.81413 19.966 2.09442 19.3069 1.58017C18.6479 1.06593 17.8359 0.786621 17 0.786621C16.1641 0.786621 15.3521 1.06593 14.6931 1.58017C14.034 2.09442 13.5657 2.81413 13.3625 3.62498C12.5835 3.96404 11.9205 4.52318 11.4548 5.23376C10.9892 5.94433 10.7411 6.77541 10.7411 7.62498C10.7411 8.47455 10.9892 9.30563 11.4548 10.0162C11.9205 10.7268 12.5835 11.2859 13.3625 11.625Z" stroke="white" stroke-width="1.5" stroke-linecap="round" stroke-linejoin="round"/>
</svg>
